<mxfile host="app.diagrams.net" modified="2022-05-02T14:30:16.240Z" agent="5.0 (Windows NT 10.0; Win64; x64) AppleWebKit/537.36 (KHTML, like Gecko) Chrome/98.0.4758.102 Safari/537.36" etag="769qXp_fvPXBTuhoaB3v" version="16.2.7" type="github">
  <diagram id="_cmY7y_k3Od5MmhJd2g_" name="Page-1">
    <mxGraphModel dx="966" dy="587" grid="1" gridSize="5" guides="1" tooltips="1" connect="1" arrows="1" fold="1" page="1" pageScale="1" pageWidth="827" pageHeight="1169" math="0" shadow="0">
      <root>
        <mxCell id="0" />
        <mxCell id="1" parent="0" />
        <mxCell id="IsdlK_YT22N7gNHr8zgR-1" value="order" style="rounded=1;whiteSpace=wrap;html=1;" vertex="1" parent="1">
          <mxGeometry x="320" y="90" width="80" height="30" as="geometry" />
        </mxCell>
        <mxCell id="IsdlK_YT22N7gNHr8zgR-2" value="" style="endArrow=none;html=1;rounded=0;" edge="1" parent="1">
          <mxGeometry width="50" height="50" relative="1" as="geometry">
            <mxPoint x="155" y="160" as="sourcePoint" />
            <mxPoint x="560" y="160" as="targetPoint" />
          </mxGeometry>
        </mxCell>
        <mxCell id="IsdlK_YT22N7gNHr8zgR-3" value="" style="endArrow=none;html=1;rounded=0;" edge="1" parent="1">
          <mxGeometry width="50" height="50" relative="1" as="geometry">
            <mxPoint x="155" y="399" as="sourcePoint" />
            <mxPoint x="560" y="399" as="targetPoint" />
          </mxGeometry>
        </mxCell>
        <mxCell id="IsdlK_YT22N7gNHr8zgR-5" value="" style="rounded=1;whiteSpace=wrap;html=1;absoluteArcSize=1;arcSize=14;strokeWidth=1;dashed=1;" vertex="1" parent="1">
          <mxGeometry x="224" y="175" width="115" height="200" as="geometry" />
        </mxCell>
        <mxCell id="IsdlK_YT22N7gNHr8zgR-4" value="peer0.org1" style="ellipse;whiteSpace=wrap;html=1;align=center;fillColor=#f5f5f5;fontColor=#333333;strokeColor=#666666;" vertex="1" parent="1">
          <mxGeometry x="231.5" y="190" width="100" height="40" as="geometry" />
        </mxCell>
        <mxCell id="IsdlK_YT22N7gNHr8zgR-6" value="endorsement node" style="ellipse;whiteSpace=wrap;html=1;align=center;" vertex="1" parent="1">
          <mxGeometry x="229.5" y="319" width="100" height="40" as="geometry" />
        </mxCell>
        <mxCell id="IsdlK_YT22N7gNHr8zgR-7" value="" style="endArrow=classic;startArrow=classic;html=1;rounded=0;entryX=0.5;entryY=1;entryDx=0;entryDy=0;exitX=0.5;exitY=0;exitDx=0;exitDy=0;" edge="1" parent="1" source="IsdlK_YT22N7gNHr8zgR-23" target="IsdlK_YT22N7gNHr8zgR-4">
          <mxGeometry width="50" height="50" relative="1" as="geometry">
            <mxPoint x="280" y="260" as="sourcePoint" />
            <mxPoint x="304.5" y="220" as="targetPoint" />
          </mxGeometry>
        </mxCell>
        <mxCell id="IsdlK_YT22N7gNHr8zgR-8" value="client" style="rounded=1;whiteSpace=wrap;html=1;" vertex="1" parent="1">
          <mxGeometry x="320" y="458" width="80" height="30" as="geometry" />
        </mxCell>
        <mxCell id="IsdlK_YT22N7gNHr8zgR-9" value="" style="rounded=1;whiteSpace=wrap;html=1;absoluteArcSize=1;arcSize=14;strokeWidth=1;dashed=1;" vertex="1" parent="1">
          <mxGeometry x="380" y="175" width="115" height="200" as="geometry" />
        </mxCell>
        <mxCell id="IsdlK_YT22N7gNHr8zgR-10" value="peer0.org2" style="ellipse;whiteSpace=wrap;html=1;align=center;fillColor=#f5f5f5;fontColor=#333333;strokeColor=#666666;" vertex="1" parent="1">
          <mxGeometry x="388.5" y="190" width="100" height="40" as="geometry" />
        </mxCell>
        <mxCell id="IsdlK_YT22N7gNHr8zgR-11" value="endorsement node" style="ellipse;whiteSpace=wrap;html=1;align=center;" vertex="1" parent="1">
          <mxGeometry x="387.5" y="319" width="100" height="40" as="geometry" />
        </mxCell>
        <mxCell id="IsdlK_YT22N7gNHr8zgR-12" value="" style="endArrow=classic;startArrow=classic;html=1;rounded=0;entryX=0.5;entryY=1;entryDx=0;entryDy=0;exitX=0.5;exitY=0;exitDx=0;exitDy=0;" edge="1" parent="1" source="IsdlK_YT22N7gNHr8zgR-24" target="IsdlK_YT22N7gNHr8zgR-10">
          <mxGeometry width="50" height="50" relative="1" as="geometry">
            <mxPoint x="439" y="265" as="sourcePoint" />
            <mxPoint x="298.5" y="225" as="targetPoint" />
          </mxGeometry>
        </mxCell>
        <mxCell id="IsdlK_YT22N7gNHr8zgR-13" value="Org1&lt;br&gt;" style="text;html=1;strokeColor=none;fillColor=none;align=center;verticalAlign=middle;whiteSpace=wrap;rounded=0;dashed=1;" vertex="1" parent="1">
          <mxGeometry x="249.5" y="160" width="60" height="30" as="geometry" />
        </mxCell>
        <mxCell id="IsdlK_YT22N7gNHr8zgR-14" value="Org2" style="text;html=1;strokeColor=none;fillColor=none;align=center;verticalAlign=middle;whiteSpace=wrap;rounded=0;dashed=1;" vertex="1" parent="1">
          <mxGeometry x="408.5" y="160" width="60" height="30" as="geometry" />
        </mxCell>
        <mxCell id="IsdlK_YT22N7gNHr8zgR-15" value="" style="endArrow=classic;html=1;rounded=0;exitX=0.5;exitY=0;exitDx=0;exitDy=0;entryX=0.5;entryY=1;entryDx=0;entryDy=0;" edge="1" parent="1" source="IsdlK_YT22N7gNHr8zgR-8">
          <mxGeometry width="50" height="50" relative="1" as="geometry">
            <mxPoint x="360" y="458" as="sourcePoint" />
            <mxPoint x="437.5" y="373" as="targetPoint" />
          </mxGeometry>
        </mxCell>
        <mxCell id="IsdlK_YT22N7gNHr8zgR-16" value="" style="endArrow=classic;html=1;rounded=0;exitX=0.5;exitY=0;exitDx=0;exitDy=0;entryX=0.5;entryY=1;entryDx=0;entryDy=0;" edge="1" parent="1" source="IsdlK_YT22N7gNHr8zgR-8">
          <mxGeometry width="50" height="50" relative="1" as="geometry">
            <mxPoint x="365" y="463" as="sourcePoint" />
            <mxPoint x="281.5" y="373" as="targetPoint" />
          </mxGeometry>
        </mxCell>
        <mxCell id="IsdlK_YT22N7gNHr8zgR-17" value="" style="endArrow=classic;html=1;rounded=0;entryX=0.5;entryY=1;entryDx=0;entryDy=0;exitX=0.5;exitY=0;exitDx=0;exitDy=0;startArrow=none;" edge="1" parent="1" source="IsdlK_YT22N7gNHr8zgR-38" target="IsdlK_YT22N7gNHr8zgR-1">
          <mxGeometry width="50" height="50" relative="1" as="geometry">
            <mxPoint x="360" y="415" as="sourcePoint" />
            <mxPoint x="410" y="365" as="targetPoint" />
          </mxGeometry>
        </mxCell>
        <mxCell id="IsdlK_YT22N7gNHr8zgR-21" value="" style="endArrow=classic;html=1;rounded=0;exitX=0.5;exitY=1;exitDx=0;exitDy=0;startArrow=none;" edge="1" parent="1" source="IsdlK_YT22N7gNHr8zgR-20" target="IsdlK_YT22N7gNHr8zgR-4">
          <mxGeometry width="50" height="50" relative="1" as="geometry">
            <mxPoint x="465" y="125" as="sourcePoint" />
            <mxPoint x="515" y="75" as="targetPoint" />
          </mxGeometry>
        </mxCell>
        <mxCell id="IsdlK_YT22N7gNHr8zgR-23" value="&lt;span style=&quot;color: rgb(51 , 51 , 51)&quot;&gt;peer1.org1&lt;/span&gt;" style="ellipse;whiteSpace=wrap;html=1;align=center;" vertex="1" parent="1">
          <mxGeometry x="231.5" y="255" width="100" height="40" as="geometry" />
        </mxCell>
        <mxCell id="IsdlK_YT22N7gNHr8zgR-24" value="&lt;span style=&quot;color: rgb(51 , 51 , 51)&quot;&gt;peer1.org2&lt;/span&gt;" style="ellipse;whiteSpace=wrap;html=1;align=center;" vertex="1" parent="1">
          <mxGeometry x="388.5" y="255" width="100" height="40" as="geometry" />
        </mxCell>
        <mxCell id="IsdlK_YT22N7gNHr8zgR-28" value="" style="endArrow=classic;startArrow=classic;html=1;rounded=0;entryX=0.5;entryY=1;entryDx=0;entryDy=0;exitX=0.5;exitY=0;exitDx=0;exitDy=0;" edge="1" parent="1">
          <mxGeometry width="50" height="50" relative="1" as="geometry">
            <mxPoint x="281" y="319" as="sourcePoint" />
            <mxPoint x="281" y="294" as="targetPoint" />
          </mxGeometry>
        </mxCell>
        <mxCell id="IsdlK_YT22N7gNHr8zgR-33" value="" style="endArrow=classic;startArrow=classic;html=1;rounded=0;entryX=0.5;entryY=1;entryDx=0;entryDy=0;exitX=0.5;exitY=0;exitDx=0;exitDy=0;" edge="1" parent="1">
          <mxGeometry width="50" height="50" relative="1" as="geometry">
            <mxPoint x="438" y="319" as="sourcePoint" />
            <mxPoint x="438" y="294" as="targetPoint" />
          </mxGeometry>
        </mxCell>
        <mxCell id="IsdlK_YT22N7gNHr8zgR-35" value="" style="endArrow=classic;html=1;rounded=0;entryX=0.5;entryY=0;entryDx=0;entryDy=0;startArrow=none;" edge="1" parent="1" source="IsdlK_YT22N7gNHr8zgR-47" target="IsdlK_YT22N7gNHr8zgR-10">
          <mxGeometry width="50" height="50" relative="1" as="geometry">
            <mxPoint x="360" y="120" as="sourcePoint" />
            <mxPoint x="302.8771607739834" y="196.10327603001952" as="targetPoint" />
          </mxGeometry>
        </mxCell>
        <mxCell id="IsdlK_YT22N7gNHr8zgR-37" value="&lt;font&gt;&lt;span style=&quot;font-size: 15px&quot;&gt;&lt;b&gt;Traffic information &lt;br&gt;channel&lt;/b&gt;&lt;/span&gt;&lt;/font&gt;" style="text;html=1;strokeColor=none;fillColor=none;align=center;verticalAlign=middle;whiteSpace=wrap;rounded=0;dashed=1;strokeWidth=5;" vertex="1" parent="1">
          <mxGeometry x="530" y="250" width="160" height="50" as="geometry" />
        </mxCell>
        <mxCell id="IsdlK_YT22N7gNHr8zgR-38" value="Send request" style="text;html=1;strokeColor=none;fillColor=none;align=center;verticalAlign=middle;whiteSpace=wrap;rounded=0;dashed=1;" vertex="1" parent="1">
          <mxGeometry x="331.5" y="405" width="60" height="30" as="geometry" />
        </mxCell>
        <mxCell id="IsdlK_YT22N7gNHr8zgR-40" value="" style="endArrow=none;html=1;rounded=0;entryX=0.5;entryY=1;entryDx=0;entryDy=0;exitX=0.5;exitY=0;exitDx=0;exitDy=0;" edge="1" parent="1" source="IsdlK_YT22N7gNHr8zgR-8" target="IsdlK_YT22N7gNHr8zgR-38">
          <mxGeometry width="50" height="50" relative="1" as="geometry">
            <mxPoint x="360" y="458" as="sourcePoint" />
            <mxPoint x="360" y="120" as="targetPoint" />
          </mxGeometry>
        </mxCell>
        <mxCell id="IsdlK_YT22N7gNHr8zgR-42" value="Kafka" style="rounded=1;whiteSpace=wrap;html=1;" vertex="1" parent="1">
          <mxGeometry x="320" y="35" width="80" height="30" as="geometry" />
        </mxCell>
        <mxCell id="IsdlK_YT22N7gNHr8zgR-43" value="" style="endArrow=classic;html=1;rounded=0;fontSize=13;entryX=0.5;entryY=0;entryDx=0;entryDy=0;" edge="1" parent="1" target="IsdlK_YT22N7gNHr8zgR-1">
          <mxGeometry width="50" height="50" relative="1" as="geometry">
            <mxPoint x="358.5" y="65" as="sourcePoint" />
            <mxPoint x="408.5" y="15" as="targetPoint" />
          </mxGeometry>
        </mxCell>
        <mxCell id="IsdlK_YT22N7gNHr8zgR-20" value="sorting" style="text;html=1;strokeColor=none;fillColor=none;align=center;verticalAlign=middle;whiteSpace=wrap;rounded=0;dashed=1;" vertex="1" parent="1">
          <mxGeometry x="315" y="140" width="44.5" height="15" as="geometry" />
        </mxCell>
        <mxCell id="IsdlK_YT22N7gNHr8zgR-46" value="" style="endArrow=none;html=1;rounded=0;exitX=0.5;exitY=1;exitDx=0;exitDy=0;" edge="1" parent="1" source="IsdlK_YT22N7gNHr8zgR-1" target="IsdlK_YT22N7gNHr8zgR-20">
          <mxGeometry width="50" height="50" relative="1" as="geometry">
            <mxPoint x="360" y="120" as="sourcePoint" />
            <mxPoint x="297.8771607739834" y="191.10327603001952" as="targetPoint" />
          </mxGeometry>
        </mxCell>
        <mxCell id="IsdlK_YT22N7gNHr8zgR-47" value="sorting" style="text;html=1;strokeColor=none;fillColor=none;align=center;verticalAlign=middle;whiteSpace=wrap;rounded=0;dashed=1;" vertex="1" parent="1">
          <mxGeometry x="375" y="140" width="44.5" height="15" as="geometry" />
        </mxCell>
        <mxCell id="IsdlK_YT22N7gNHr8zgR-54" value="" style="endArrow=none;html=1;rounded=0;" edge="1" parent="1">
          <mxGeometry width="50" height="50" relative="1" as="geometry">
            <mxPoint x="360" y="120" as="sourcePoint" />
            <mxPoint x="390" y="145" as="targetPoint" />
          </mxGeometry>
        </mxCell>
      </root>
    </mxGraphModel>
  </diagram>
</mxfile>
